G04 #@! TF.GenerationSoftware,KiCad,Pcbnew,9.0.1*
G04 #@! TF.CreationDate,2025-07-06T14:29:11+03:00*
G04 #@! TF.ProjectId,panel,70616e65-6c2e-46b6-9963-61645f706362,rev?*
G04 #@! TF.SameCoordinates,Original*
G04 #@! TF.FileFunction,Paste,Top*
G04 #@! TF.FilePolarity,Positive*
%FSLAX46Y46*%
G04 Gerber Fmt 4.6, Leading zero omitted, Abs format (unit mm)*
G04 Created by KiCad (PCBNEW 9.0.1) date 2025-07-06 14:29:11*
%MOMM*%
%LPD*%
G01*
G04 APERTURE LIST*
G04 Aperture macros list*
%AMRoundRect*
0 Rectangle with rounded corners*
0 $1 Rounding radius*
0 $2 $3 $4 $5 $6 $7 $8 $9 X,Y pos of 4 corners*
0 Add a 4 corners polygon primitive as box body*
4,1,4,$2,$3,$4,$5,$6,$7,$8,$9,$2,$3,0*
0 Add four circle primitives for the rounded corners*
1,1,$1+$1,$2,$3*
1,1,$1+$1,$4,$5*
1,1,$1+$1,$6,$7*
1,1,$1+$1,$8,$9*
0 Add four rect primitives between the rounded corners*
20,1,$1+$1,$2,$3,$4,$5,0*
20,1,$1+$1,$4,$5,$6,$7,0*
20,1,$1+$1,$6,$7,$8,$9,0*
20,1,$1+$1,$8,$9,$2,$3,0*%
%AMFreePoly0*
4,1,21,1.372500,0.787500,0.862500,0.787500,0.862500,0.532500,1.372500,0.532500,1.372500,0.127500,0.862500,0.127500,0.862500,-0.127500,1.372500,-0.127500,1.372500,-0.532500,0.862500,-0.532500,0.862500,-0.787500,1.372500,-0.787500,1.372500,-1.195000,0.612500,-1.195000,0.612500,-1.117500,-0.862500,-1.117500,-0.862500,1.117500,0.612500,1.117500,0.612500,1.195000,1.372500,1.195000,
1.372500,0.787500,1.372500,0.787500,$1*%
G04 Aperture macros list end*
%ADD10RoundRect,0.140000X0.140000X0.170000X-0.140000X0.170000X-0.140000X-0.170000X0.140000X-0.170000X0*%
%ADD11RoundRect,0.140000X-0.170000X0.140000X-0.170000X-0.140000X0.170000X-0.140000X0.170000X0.140000X0*%
%ADD12RoundRect,0.150000X0.150000X-0.587500X0.150000X0.587500X-0.150000X0.587500X-0.150000X-0.587500X0*%
%ADD13RoundRect,0.147500X-0.172500X0.147500X-0.172500X-0.147500X0.172500X-0.147500X0.172500X0.147500X0*%
%ADD14RoundRect,0.135000X0.185000X-0.135000X0.185000X0.135000X-0.185000X0.135000X-0.185000X-0.135000X0*%
%ADD15RoundRect,0.250000X0.457500X0.445000X-0.457500X0.445000X-0.457500X-0.445000X0.457500X-0.445000X0*%
%ADD16R,0.990000X0.405000*%
%ADD17FreePoly0,180.000000*%
%ADD18RoundRect,0.162500X0.362500X0.162500X-0.362500X0.162500X-0.362500X-0.162500X0.362500X-0.162500X0*%
%ADD19RoundRect,0.140000X0.021213X-0.219203X0.219203X-0.021213X-0.021213X0.219203X-0.219203X0.021213X0*%
%ADD20RoundRect,0.135000X0.135000X0.185000X-0.135000X0.185000X-0.135000X-0.185000X0.135000X-0.185000X0*%
%ADD21RoundRect,0.250000X0.450000X-0.262500X0.450000X0.262500X-0.450000X0.262500X-0.450000X-0.262500X0*%
%ADD22RoundRect,0.135000X-0.185000X0.135000X-0.185000X-0.135000X0.185000X-0.135000X0.185000X0.135000X0*%
%ADD23RoundRect,0.135000X-0.135000X-0.185000X0.135000X-0.185000X0.135000X0.185000X-0.135000X0.185000X0*%
%ADD24RoundRect,0.250000X0.300000X-0.300000X0.300000X0.300000X-0.300000X0.300000X-0.300000X-0.300000X0*%
%ADD25RoundRect,0.112500X-0.112500X0.187500X-0.112500X-0.187500X0.112500X-0.187500X0.112500X0.187500X0*%
%ADD26RoundRect,0.225000X-0.225000X-0.250000X0.225000X-0.250000X0.225000X0.250000X-0.225000X0.250000X0*%
%ADD27RoundRect,0.150000X0.150000X-0.825000X0.150000X0.825000X-0.150000X0.825000X-0.150000X-0.825000X0*%
%ADD28RoundRect,0.150000X0.512500X0.150000X-0.512500X0.150000X-0.512500X-0.150000X0.512500X-0.150000X0*%
%ADD29RoundRect,0.147500X0.017678X-0.226274X0.226274X-0.017678X-0.017678X0.226274X-0.226274X0.017678X0*%
%ADD30RoundRect,0.140000X-0.140000X-0.170000X0.140000X-0.170000X0.140000X0.170000X-0.140000X0.170000X0*%
%ADD31RoundRect,0.300000X-0.400000X-0.300000X0.400000X-0.300000X0.400000X0.300000X-0.400000X0.300000X0*%
%ADD32RoundRect,0.250000X0.017678X0.434871X-0.434871X-0.017678X-0.017678X-0.434871X0.434871X0.017678X0*%
%ADD33RoundRect,0.075000X-0.415425X-0.521491X0.521491X0.415425X0.415425X0.521491X-0.521491X-0.415425X0*%
%ADD34RoundRect,0.075000X0.415425X-0.521491X0.521491X-0.415425X-0.415425X0.521491X-0.521491X0.415425X0*%
%ADD35RoundRect,0.135000X-0.035355X0.226274X-0.226274X0.035355X0.035355X-0.226274X0.226274X-0.035355X0*%
%ADD36RoundRect,0.150000X-0.587500X-0.150000X0.587500X-0.150000X0.587500X0.150000X-0.587500X0.150000X0*%
%ADD37RoundRect,0.150000X-0.512500X-0.150000X0.512500X-0.150000X0.512500X0.150000X-0.512500X0.150000X0*%
%ADD38RoundRect,0.250000X-0.550000X1.500000X-0.550000X-1.500000X0.550000X-1.500000X0.550000X1.500000X0*%
%ADD39RoundRect,0.225000X0.250000X-0.225000X0.250000X0.225000X-0.250000X0.225000X-0.250000X-0.225000X0*%
%ADD40RoundRect,0.112500X0.112500X-0.187500X0.112500X0.187500X-0.112500X0.187500X-0.112500X-0.187500X0*%
%ADD41RoundRect,0.140000X0.170000X-0.140000X0.170000X0.140000X-0.170000X0.140000X-0.170000X-0.140000X0*%
%ADD42RoundRect,0.135000X0.035355X-0.226274X0.226274X-0.035355X-0.035355X0.226274X-0.226274X0.035355X0*%
%ADD43R,0.600000X1.450000*%
%ADD44R,0.300000X1.450000*%
%ADD45RoundRect,0.225000X0.225000X0.250000X-0.225000X0.250000X-0.225000X-0.250000X0.225000X-0.250000X0*%
%ADD46RoundRect,0.140000X-0.021213X0.219203X-0.219203X0.021213X0.021213X-0.219203X0.219203X-0.021213X0*%
%ADD47RoundRect,0.250000X-0.495000X-0.495000X0.495000X-0.495000X0.495000X0.495000X-0.495000X0.495000X0*%
%ADD48RoundRect,0.062500X-0.337500X-0.062500X0.337500X-0.062500X0.337500X0.062500X-0.337500X0.062500X0*%
%ADD49RoundRect,0.062500X-0.062500X-0.337500X0.062500X-0.337500X0.062500X0.337500X-0.062500X0.337500X0*%
%ADD50RoundRect,0.112500X-0.187500X-0.112500X0.187500X-0.112500X0.187500X0.112500X-0.187500X0.112500X0*%
%ADD51RoundRect,0.250000X-1.000000X0.700000X-1.000000X-0.700000X1.000000X-0.700000X1.000000X0.700000X0*%
%ADD52RoundRect,0.150000X0.587500X0.150000X-0.587500X0.150000X-0.587500X-0.150000X0.587500X-0.150000X0*%
G04 APERTURE END LIST*
D10*
G04 #@! TO.C,C28*
X139255181Y-63569638D03*
X138295181Y-63569638D03*
G04 #@! TD*
D11*
G04 #@! TO.C,C33*
X149675181Y-67449639D03*
X149675181Y-68409639D03*
G04 #@! TD*
D12*
G04 #@! TO.C,Q4*
X126725181Y-47967139D03*
X128625181Y-47967139D03*
X127675181Y-46092138D03*
G04 #@! TD*
D13*
G04 #@! TO.C,D5*
X173475180Y-34359639D03*
X173475180Y-35329639D03*
G04 #@! TD*
D14*
G04 #@! TO.C,R37*
X158175181Y-61739638D03*
X158175181Y-60719640D03*
G04 #@! TD*
G04 #@! TO.C,R21*
X157575181Y-46439639D03*
X157575181Y-45419639D03*
G04 #@! TD*
D11*
G04 #@! TO.C,C5*
X141075181Y-44024639D03*
X141075181Y-44984639D03*
G04 #@! TD*
D15*
G04 #@! TO.C,C19*
X161177681Y-68929639D03*
X158472681Y-68929639D03*
G04 #@! TD*
D16*
G04 #@! TO.C,Q1*
X165175181Y-50719639D03*
X165175181Y-50059639D03*
X165175181Y-49399639D03*
X165175181Y-48739639D03*
D17*
X163182681Y-49729639D03*
G04 #@! TD*
D14*
G04 #@! TO.C,R7*
X142175181Y-59239638D03*
X142175181Y-58219640D03*
G04 #@! TD*
D18*
G04 #@! TO.C,SW2*
X160650181Y-73504639D03*
X156500181Y-73504639D03*
X160650181Y-71354639D03*
X156525181Y-71354639D03*
G04 #@! TD*
D19*
G04 #@! TO.C,C10*
X142921556Y-64554836D03*
X143600378Y-63876014D03*
G04 #@! TD*
D10*
G04 #@! TO.C,C30*
X156855181Y-62729639D03*
X155895181Y-62729639D03*
G04 #@! TD*
D14*
G04 #@! TO.C,R34*
X172775181Y-51539638D03*
X172775181Y-50519640D03*
G04 #@! TD*
G04 #@! TO.C,R23*
X158575181Y-46439638D03*
X158575181Y-45419640D03*
G04 #@! TD*
D20*
G04 #@! TO.C,R27*
X135385180Y-65029638D03*
X134365182Y-65029638D03*
G04 #@! TD*
D21*
G04 #@! TO.C,R2*
X142575181Y-44617139D03*
X142575181Y-42792139D03*
G04 #@! TD*
D22*
G04 #@! TO.C,R44*
X170375181Y-36219640D03*
X170375181Y-37239638D03*
G04 #@! TD*
D23*
G04 #@! TO.C,R41*
X138765182Y-68929639D03*
X139785180Y-68929639D03*
G04 #@! TD*
D24*
G04 #@! TO.C,D1*
X167075181Y-50529639D03*
X167075181Y-47729639D03*
G04 #@! TD*
D25*
G04 #@! TO.C,D4*
X128375181Y-42279639D03*
X128375181Y-44379639D03*
G04 #@! TD*
D14*
G04 #@! TO.C,R39*
X161475181Y-61739638D03*
X161475181Y-60719640D03*
G04 #@! TD*
D18*
G04 #@! TO.C,SW1*
X145200181Y-73504639D03*
X141050181Y-73504639D03*
X145200181Y-71354639D03*
X141075181Y-71354639D03*
G04 #@! TD*
D26*
G04 #@! TO.C,C18*
X169000181Y-66729639D03*
X170550181Y-66729639D03*
G04 #@! TD*
D27*
G04 #@! TO.C,U3*
X162970181Y-59304639D03*
X164240181Y-59304639D03*
X165510181Y-59304639D03*
X166780181Y-59304639D03*
X166780181Y-54354639D03*
X165510181Y-54354639D03*
X164240181Y-54354639D03*
X162970181Y-54354639D03*
G04 #@! TD*
D28*
G04 #@! TO.C,U5*
X154712681Y-73679638D03*
X154712681Y-72729639D03*
X154712681Y-71779640D03*
X152437681Y-71779640D03*
X152437681Y-73679638D03*
G04 #@! TD*
D16*
G04 #@! TO.C,Q2*
X136710181Y-59119639D03*
X136710181Y-58459639D03*
X136710181Y-57799639D03*
X136710181Y-57139639D03*
D17*
X134717681Y-58129639D03*
G04 #@! TD*
D22*
G04 #@! TO.C,R24*
X168775181Y-47719640D03*
X168775181Y-48739638D03*
G04 #@! TD*
D23*
G04 #@! TO.C,R25*
X140665182Y-54829639D03*
X141685180Y-54829639D03*
G04 #@! TD*
D29*
G04 #@! TO.C,L1*
X142832234Y-67272586D03*
X143518128Y-66586692D03*
G04 #@! TD*
D30*
G04 #@! TO.C,C1*
X142470181Y-52229639D03*
X143430181Y-52229639D03*
G04 #@! TD*
D14*
G04 #@! TO.C,R35*
X156875181Y-61739638D03*
X156875181Y-60719640D03*
G04 #@! TD*
D22*
G04 #@! TO.C,R5*
X172775181Y-46519640D03*
X172775181Y-47539638D03*
G04 #@! TD*
G04 #@! TO.C,R32*
X127875181Y-49419640D03*
X127875181Y-50439638D03*
G04 #@! TD*
D31*
G04 #@! TO.C,Y1*
X144975181Y-69479639D03*
X147175181Y-69479639D03*
X147175181Y-67779639D03*
X144975181Y-67779639D03*
G04 #@! TD*
D32*
G04 #@! TO.C,C12*
X142304506Y-65800314D03*
X141045856Y-67058964D03*
G04 #@! TD*
D14*
G04 #@! TO.C,R20*
X156575181Y-46439638D03*
X156575181Y-45419640D03*
G04 #@! TD*
D33*
G04 #@! TO.C,U1*
X143987305Y-62028427D03*
X144340859Y-62381981D03*
X144694412Y-62735534D03*
X145047966Y-63089088D03*
X145401519Y-63442641D03*
X145755072Y-63796194D03*
X146108626Y-64149748D03*
X146462179Y-64503301D03*
X146815732Y-64856854D03*
X147169286Y-65210408D03*
X147522839Y-65563961D03*
X147876393Y-65917515D03*
D34*
X149873969Y-65917515D03*
X150227523Y-65563961D03*
X150581076Y-65210408D03*
X150934630Y-64856854D03*
X151288183Y-64503301D03*
X151641736Y-64149748D03*
X151995290Y-63796194D03*
X152348843Y-63442641D03*
X152702396Y-63089088D03*
X153055950Y-62735534D03*
X153409503Y-62381981D03*
X153763057Y-62028427D03*
D33*
X153763057Y-60030851D03*
X153409503Y-59677297D03*
X153055950Y-59323744D03*
X152702396Y-58970190D03*
X152348843Y-58616637D03*
X151995290Y-58263084D03*
X151641736Y-57909530D03*
X151288183Y-57555977D03*
X150934630Y-57202424D03*
X150581076Y-56848870D03*
X150227523Y-56495317D03*
X149873969Y-56141763D03*
D34*
X147876393Y-56141763D03*
X147522839Y-56495317D03*
X147169286Y-56848870D03*
X146815732Y-57202424D03*
X146462179Y-57555977D03*
X146108626Y-57909530D03*
X145755072Y-58263084D03*
X145401519Y-58616637D03*
X145047966Y-58970190D03*
X144694412Y-59323744D03*
X144340859Y-59677297D03*
X143987305Y-60030851D03*
G04 #@! TD*
D14*
G04 #@! TO.C,R11*
X172875181Y-64239638D03*
X172875181Y-63219640D03*
G04 #@! TD*
D11*
G04 #@! TO.C,C7*
X147775181Y-50224639D03*
X147775181Y-51184639D03*
G04 #@! TD*
D35*
G04 #@! TO.C,R45*
X152235805Y-54069015D03*
X151514557Y-54790263D03*
G04 #@! TD*
D20*
G04 #@! TO.C,R9*
X139685180Y-55829639D03*
X138665182Y-55829639D03*
G04 #@! TD*
D22*
G04 #@! TO.C,R40*
X160475181Y-60719640D03*
X160475181Y-61739638D03*
G04 #@! TD*
D11*
G04 #@! TO.C,C4*
X147275181Y-44024639D03*
X147275181Y-44984639D03*
G04 #@! TD*
D14*
G04 #@! TO.C,R33*
X173775181Y-51539638D03*
X173775181Y-50519640D03*
G04 #@! TD*
D36*
G04 #@! TO.C,D3*
X136837681Y-64779639D03*
X136837681Y-66679639D03*
X138712682Y-65729639D03*
G04 #@! TD*
D20*
G04 #@! TO.C,R28*
X135385180Y-66029639D03*
X134365182Y-66029639D03*
G04 #@! TD*
D37*
G04 #@! TO.C,U6*
X169137681Y-63279640D03*
X169137681Y-64229639D03*
X169137681Y-65179638D03*
X171412681Y-65179638D03*
X171412681Y-64229639D03*
X171412681Y-63279640D03*
G04 #@! TD*
D23*
G04 #@! TO.C,R29*
X134365182Y-67029639D03*
X135385180Y-67029639D03*
G04 #@! TD*
D11*
G04 #@! TO.C,C21*
X173675181Y-66549639D03*
X173675181Y-67509639D03*
G04 #@! TD*
D10*
G04 #@! TO.C,C9*
X173755181Y-48529639D03*
X172795181Y-48529639D03*
G04 #@! TD*
G04 #@! TO.C,C29*
X173755181Y-49529639D03*
X172795181Y-49529639D03*
G04 #@! TD*
D38*
G04 #@! TO.C,C6*
X151875181Y-45129639D03*
X151875181Y-50729639D03*
G04 #@! TD*
D22*
G04 #@! TO.C,R6*
X173775181Y-46519640D03*
X173775181Y-47539638D03*
G04 #@! TD*
D14*
G04 #@! TO.C,R31*
X128875181Y-50439638D03*
X128875181Y-49419640D03*
G04 #@! TD*
D26*
G04 #@! TO.C,C16*
X169000181Y-68199639D03*
X170550181Y-68199639D03*
G04 #@! TD*
D39*
G04 #@! TO.C,C14*
X150775181Y-73729639D03*
X150775181Y-72179639D03*
G04 #@! TD*
D21*
G04 #@! TO.C,R1*
X145775181Y-44617139D03*
X145775181Y-42792139D03*
G04 #@! TD*
D14*
G04 #@! TO.C,R30*
X140175181Y-64539638D03*
X140175181Y-63519640D03*
G04 #@! TD*
D22*
G04 #@! TO.C,R36*
X155875181Y-60719640D03*
X155875181Y-61739638D03*
G04 #@! TD*
D30*
G04 #@! TO.C,C34*
X146795181Y-70829639D03*
X147755181Y-70829639D03*
G04 #@! TD*
D23*
G04 #@! TO.C,TH1*
X152795182Y-67329639D03*
X153815180Y-67329639D03*
G04 #@! TD*
D11*
G04 #@! TO.C,C3*
X140550181Y-50149639D03*
X140550181Y-51109639D03*
G04 #@! TD*
D10*
G04 #@! TO.C,C32*
X161355181Y-62729639D03*
X160395181Y-62729639D03*
G04 #@! TD*
D13*
G04 #@! TO.C,D7*
X170375181Y-34359639D03*
X170375181Y-35329639D03*
G04 #@! TD*
D22*
G04 #@! TO.C,R38*
X159175181Y-60719640D03*
X159175181Y-61739638D03*
G04 #@! TD*
D20*
G04 #@! TO.C,R8*
X137785180Y-55829639D03*
X136765182Y-55829639D03*
G04 #@! TD*
D40*
G04 #@! TO.C,D8*
X156975181Y-44079639D03*
X156975181Y-41979639D03*
G04 #@! TD*
D10*
G04 #@! TO.C,C8*
X165335181Y-61029639D03*
X164375181Y-61029639D03*
G04 #@! TD*
D22*
G04 #@! TO.C,R43*
X171975181Y-36219640D03*
X171975181Y-37239638D03*
G04 #@! TD*
D15*
G04 #@! TO.C,C20*
X161177681Y-66779639D03*
X158472681Y-66779639D03*
G04 #@! TD*
D30*
G04 #@! TO.C,C36*
X152825181Y-66399638D03*
X153785181Y-66399638D03*
G04 #@! TD*
D41*
G04 #@! TO.C,C2*
X140550181Y-49209639D03*
X140550181Y-48249639D03*
G04 #@! TD*
D42*
G04 #@! TO.C,R10*
X143607450Y-65283156D03*
X144328698Y-64561908D03*
G04 #@! TD*
D43*
G04 #@! TO.C,J2*
X167425181Y-40674639D03*
X166625181Y-40674639D03*
D44*
X165425181Y-40674639D03*
X164425181Y-40674639D03*
X163925181Y-40674639D03*
X162925181Y-40674639D03*
D43*
X161725181Y-40674639D03*
X160925181Y-40674639D03*
X160925181Y-40674639D03*
X161725181Y-40674639D03*
D44*
X162425181Y-40674639D03*
X163425181Y-40674639D03*
X164925181Y-40674639D03*
X165925181Y-40674639D03*
D43*
X166625181Y-40674639D03*
X167425181Y-40674639D03*
G04 #@! TD*
D45*
G04 #@! TO.C,C13*
X154950181Y-70229639D03*
X153400181Y-70229639D03*
G04 #@! TD*
D14*
G04 #@! TO.C,R22*
X159575181Y-46439638D03*
X159575181Y-45419640D03*
G04 #@! TD*
D46*
G04 #@! TO.C,C11*
X145114592Y-65590228D03*
X144435770Y-66269050D03*
G04 #@! TD*
D22*
G04 #@! TO.C,R19*
X158275181Y-33619640D03*
X158275181Y-34639638D03*
G04 #@! TD*
D20*
G04 #@! TO.C,R46*
X151785180Y-67329639D03*
X150765182Y-67329639D03*
G04 #@! TD*
D22*
G04 #@! TO.C,R42*
X173475181Y-36219640D03*
X173475181Y-37239638D03*
G04 #@! TD*
D20*
G04 #@! TO.C,R26*
X141685180Y-53829639D03*
X140665182Y-53829639D03*
G04 #@! TD*
D13*
G04 #@! TO.C,D6*
X171975181Y-34359639D03*
X171975181Y-35329639D03*
G04 #@! TD*
D47*
G04 #@! TO.C,U2*
X143225181Y-47604639D03*
X143225181Y-49454639D03*
X145075181Y-47604639D03*
X145075181Y-49454639D03*
D48*
X141700181Y-47029639D03*
X141700181Y-47529639D03*
X141700181Y-48029639D03*
X141700181Y-48529639D03*
X141700181Y-49029639D03*
X141700181Y-49529639D03*
X141700181Y-50029639D03*
D49*
X142650181Y-50979639D03*
X143150181Y-50979639D03*
X143650181Y-50979639D03*
X144150181Y-50979639D03*
X144650181Y-50979639D03*
X145150181Y-50979639D03*
X145650181Y-50979639D03*
D48*
X146600181Y-50029639D03*
X146600181Y-49529639D03*
X146600181Y-49029639D03*
X146600181Y-48529639D03*
X146600181Y-48029639D03*
X146600181Y-47529639D03*
X146600181Y-47029639D03*
D49*
X145650181Y-46079639D03*
X145150181Y-46079639D03*
X144650181Y-46079639D03*
X144150181Y-46079639D03*
X143650181Y-46079639D03*
X143150181Y-46079639D03*
X142650181Y-46079639D03*
G04 #@! TD*
D29*
G04 #@! TO.C,D9*
X150832234Y-54072586D03*
X151518128Y-53386692D03*
G04 #@! TD*
D50*
G04 #@! TO.C,D2*
X133625181Y-52829639D03*
X135725181Y-52829639D03*
G04 #@! TD*
D30*
G04 #@! TO.C,C31*
X158195181Y-62729639D03*
X159155181Y-62729639D03*
G04 #@! TD*
D23*
G04 #@! TO.C,R13*
X171765182Y-66439639D03*
X172785180Y-66439639D03*
G04 #@! TD*
D51*
G04 #@! TO.C,L2*
X165175181Y-63779639D03*
X165175181Y-67879639D03*
G04 #@! TD*
D30*
G04 #@! TO.C,C17*
X169795181Y-62029639D03*
X170755181Y-62029639D03*
G04 #@! TD*
D11*
G04 #@! TO.C,C35*
X148675181Y-67449639D03*
X148675181Y-68409639D03*
G04 #@! TD*
D39*
G04 #@! TO.C,C15*
X149275181Y-73729639D03*
X149275181Y-72179639D03*
G04 #@! TD*
D20*
G04 #@! TO.C,R14*
X172785180Y-67529639D03*
X171765182Y-67529639D03*
G04 #@! TD*
D42*
G04 #@! TO.C,R4*
X143414557Y-55590263D03*
X144135805Y-54869015D03*
G04 #@! TD*
D28*
G04 #@! TO.C,U4*
X140712681Y-58979638D03*
X140712681Y-58029639D03*
X140712681Y-57079640D03*
X138437681Y-57079640D03*
X138437681Y-58979638D03*
G04 #@! TD*
D23*
G04 #@! TO.C,R12*
X172865183Y-65229639D03*
X173885181Y-65229639D03*
G04 #@! TD*
D52*
G04 #@! TO.C,Q3*
X139212681Y-54579639D03*
X139212681Y-52679639D03*
X137337680Y-53629639D03*
G04 #@! TD*
M02*
