M48
METRIC,TZ
T1C0.300
T2C0.400
T3C0.500
T4C0.600
T5C0.650
T6C0.750
T7C0.800
T8C0.950
T9C1.020
T10C1.900
T11C3.200
%
G90
G05
T1
X136498Y-60879
X136975Y-51330
X136975Y-47230
X136975Y-48330
X136975Y-49330
X136975Y-50330
X137975Y-47230
X137975Y-48330
X137975Y-49330
X137975Y-50330
X137975Y-51330
X138100Y-66530
X138975Y-47230
X138975Y-48330
X138975Y-49330
X138975Y-50330
X138975Y-51330
X139315Y-68261
X140506Y-44667
X140925Y-51880
X142305Y-63460
X142375Y-67730
X142675Y-47030
X142675Y-47980
X142675Y-48930
X143099Y-63232
X143184Y-55890
X143675Y-47030
X143675Y-47980
X143675Y-48930
X144675Y-47030
X144675Y-47980
X144675Y-48930
X145675Y-47030
X145675Y-47980
X145675Y-48930
X145875Y-60230
X146303Y-54429
X146975Y-59630
X147704Y-44753
X147775Y-48630
X147975Y-72330
X147975Y-73230
X147975Y-74106
X149875Y-54930
X150375Y-43530
X150375Y-44430
X150375Y-45430
X150375Y-46530
X154875Y-69380
X156575Y-43430
X156899Y-44880
X156979Y-63554
X157475Y-41980
X161572Y-63536
X163244Y-38298
X163758Y-39017
X164204Y-57830
X168275Y-68830
X168275Y-69530
X168875Y-61930
X168875Y-68830
X168875Y-69530
X170375Y-37630
X170592Y-69247
X170799Y-52430
X171158Y-69812
X171975Y-37630
X172368Y-50807
X172475Y-68730
X172975Y-61830
X173155Y-68308
X173475Y-37630
X173921Y-52275
T2
X166075Y-49530
X166075Y-50330
X166075Y-51130
X167275Y-49530
X167680Y-51978
X168475Y-49630
X168475Y-50330
X168475Y-51130
X168475Y-51930
T3
X160125Y-66780
X160125Y-68930
T5
X124170Y-69430
X124170Y-71630
X126075Y-68330
X126075Y-72730
X127980Y-69430
X127980Y-71630
X151713Y-37305
X152027Y-35106
X153302Y-38994
X154120Y-34365
X155272Y-40219
X156090Y-35590
X157365Y-39478
X157679Y-37279
T6
X131775Y-72780
X132275Y-42030
X132275Y-47580
X133775Y-72780
X134275Y-42030
X134275Y-47580
X135775Y-72780
X137775Y-72780
X159275Y-49830
X159275Y-51830
X159275Y-53830
X159275Y-55830
X159275Y-57830
X165575Y-72780
X167575Y-72780
X169575Y-72780
X171575Y-72780
X172525Y-54430
X172525Y-56430
X172525Y-58430
T7
X138075Y-61530
X140075Y-61530
X170775Y-48430
X170775Y-50430
X171425Y-41392
X171425Y-43392
T8
X140313Y-39313
X142759Y-38800
X145206Y-38287
X147653Y-37774
T9
X131560Y-55030
X131560Y-63230
X134560Y-55030
X134560Y-63230
T10
X162575Y-44592
X167575Y-44592
T11
X126075Y-70530
T4
X159855Y-35880G85X159855Y-35280
G05
X159855Y-40310G85X159855Y-39210
G05
X168495Y-35880G85X168495Y-35280
G05
X168495Y-40310G85X168495Y-39210
G05
T11
X155663Y-38084G85X153729Y-36500
G05
M30
